PathFileType	3	(X/Y/Z)	walking_1__view1_aligned.trc
DataRate	CameraRate	NumFrames	NumMarkers	Units	OrigDataRate	OrigDataStartFrame	OrigNumFrames
100.0	100.0	14	19	mm	100.0	5342	6105
Frame#	Time	pelvis			neck			head			hip_left			hip_right			knee_left			knee_right			ankle_left			ankle_right			heel_left			heel_right			toe_left			toe_right			shoulder_left			shoulder_right			elbow_left			elbow_right			wrist_left			wrist_right			
		X1	Y1	Z1	X2	Y2	Z2	X3	Y3	Z3	X4	Y4	Z4	X5	Y5	Z5	X6	Y6	Z6	X7	Y7	Z7	X8	Y8	Z8	X9	Y9	Z9	X10	Y10	Z10	X11	Y11	Z11	X12	Y12	Z12	X13	Y13	Z13	X14	Y14	Z14	X15	Y15	Z15	X16	Y16	Z16	X17	Y17	Z17	X18	Y18	Z18	X19	Y19	Z19	
5342	53.41000	77.946247	931.574634	115.037296	34.050314	1495.970159	206.810322	16.996892	1619.012372	328.503004	156.886588	934.310624	119.132553	-0.994313	928.838608	110.942225	150.860127	483.131148	95.740586	-55.105140	546.593173	351.016667	124.347095	141.630876	-115.080511	-75.992205	135.316020	367.514170	118.852082	111.908528	-161.959162	-76.110456	81.169106	340.668685	123.940618	29.246769	20.472110	-74.994502	101.332890	566.193504	218.992683	1459.103892	221.518273	-125.147117	1415.842382	128.102153	326.602089	1182.114569	257.931950	-148.736925	1123.610157	61.935026	342.277812	963.670431	418.695926	-214.480665	855.077580	51.391226
5343	53.42000	75.683533	931.438681	115.959277	31.685626	1495.996766	207.471328	14.908834	1618.731226	329.312675	154.728811	934.014415	119.772363	-3.361889	928.862922	112.146318	150.040099	483.641765	100.308728	-57.040119	545.330573	349.787295	122.246404	145.209770	-116.226853	-78.811990	132.351512	369.216564	116.450748	116.502979	-163.670826	-79.075485	77.881787	342.612035	121.889995	29.335655	16.409067	-77.596503	99.090238	568.448307	216.629796	1459.551872	221.498317	-127.544641	1415.767619	129.574771	324.131680	1182.525652	257.424310	-151.734602	1123.485957	63.865200	339.186351	964.440467	418.550819	-216.668834	855.538786	54.508612
5344	53.43000	73.420819	931.302727	116.881259	29.320938	1496.023373	208.132335	12.820777	1618.450080	330.122347	152.571033	933.718206	120.412172	-5.729464	928.887237	113.350412	149.220071	484.152382	104.876870	-58.975098	544.067973	348.557923	120.145713	148.788664	-117.373195	-81.631774	129.387003	370.918958	114.049414	121.097430	-165.382490	-82.040514	74.594468	344.555386	119.839372	29.424540	12.346025	-80.198503	96.847587	570.703109	214.266910	1459.999851	221.478360	-129.942164	1415.692856	131.047389	321.661271	1182.936734	256.916671	-154.732279	1123.361757	65.795373	336.094890	965.210502	418.405711	-218.857003	855.999992	57.625997
5345	53.44000	71.158106	931.166774	117.803241	26.956250	1496.049980	208.793341	10.732719	1618.168935	330.932018	150.413256	933.421997	121.051982	-8.097040	928.911551	114.554505	148.400044	484.662999	109.445012	-60.910077	542.805373	347.328551	118.045022	152.367558	-118.519537	-84.451558	126.422494	372.621352	111.648080	125.691881	-167.094155	-85.005543	71.307149	346.498736	117.788750	29.513426	8.282982	-82.800504	94.604935	572.957912	211.904023	1460.447831	221.458404	-132.339688	1415.618094	132.520007	319.190862	1183.347817	256.409031	-157.729956	1123.237557	67.725546	333.003429	965.980537	418.260604	-221.045172	856.461198	60.743383
5346	53.45000	68.895392	931.030821	118.725222	24.591563	1496.076587	209.454347	8.644662	1617.887789	331.741690	148.255478	933.125789	121.691792	-10.464615	928.935866	115.758599	147.580016	485.173616	114.013153	-62.845055	541.542773	346.099180	115.944330	155.946451	-119.665879	-87.271342	123.457985	374.323746	109.246746	130.286331	-168.805819	-87.970572	68.019830	348.442086	115.738127	29.602312	4.219940	-85.402505	92.362284	575.212715	209.541136	1460.895811	221.438447	-134.737211	1415.543331	133.992625	316.720453	1183.758900	255.901391	-160.727633	1123.113358	69.655720	329.911968	966.750573	418.115496	-223.233341	856.922404	63.860769
5347	53.46000	66.632678	930.894868	119.647204	22.226875	1496.103195	210.115353	6.556604	1617.606643	332.551362	146.097701	932.829580	122.331601	-12.832190	928.960181	116.962692	146.759988	485.684233	118.581295	-64.780034	540.280173	344.869808	113.843639	159.525345	-120.812221	-90.091126	120.493476	376.026140	106.845412	134.880782	-170.517484	-90.935601	64.732511	350.385437	113.687504	29.691197	0.156897	-88.004506	90.119633	577.467518	207.178250	1461.343791	221.418490	-137.134735	1415.468568	135.465243	314.250044	1184.169983	255.393751	-163.725310	1122.989158	71.585893	326.820507	967.520608	417.970389	-225.421510	857.383609	66.978155
5348	53.47000	64.369965	930.758915	120.569186	19.862187	1496.129802	210.776359	4.468547	1617.325497	333.361033	143.939923	932.533371	122.971411	-15.199766	928.984495	118.166786	145.939960	486.194850	123.149437	-66.715013	539.017573	343.640436	111.742948	163.104239	-121.958563	-92.910910	117.528967	377.728534	104.444078	139.475233	-172.229148	-93.900630	61.445192	352.328787	111.636881	29.780083	-3.906145	-90.606506	87.876981	579.722321	204.815363	1461.791770	221.398534	-139.532258	1415.393805	136.937862	311.779635	1184.581066	254.886111	-166.722987	1122.864958	73.516066	323.729046	968.290643	417.825281	-227.609679	857.844815	70.095541
5349	53.48000	62.107251	930.622962	121.491168	17.497499	1496.156409	211.437366	2.380489	1617.044351	334.170705	141.782146	932.237162	123.611220	-17.567341	929.008810	119.370879	145.119933	486.705467	127.717579	-68.649992	537.754973	342.411064	109.642257	166.683133	-123.104905	-95.730695	114.564458	379.430928	102.042744	144.069684	-173.940813	-96.865659	58.157873	354.272137	109.586258	29.868968	-7.969188	-93.208507	85.634330	581.977124	202.452476	1462.239750	221.378577	-141.929782	1415.319042	138.410480	309.309226	1184.992149	254.378472	-169.720665	1122.740759	75.446240	320.637586	969.060678	417.680174	-229.797848	858.306021	73.212927
5350	53.49000	59.844537	930.487009	122.413149	15.132812	1496.183016	212.098372	0.292432	1616.763205	334.980377	139.624368	931.940953	124.251030	-19.934917	929.033124	120.574973	144.299905	487.216084	132.285720	-70.584971	536.492372	341.181693	107.541565	170.262027	-124.251247	-98.550479	111.599949	381.133322	99.641410	148.664134	-175.652477	-99.830688	54.870554	356.215488	107.535636	29.957854	-12.032230	-95.810508	83.391679	584.231926	200.089589	1462.687730	221.358621	-144.327305	1415.244280	139.883098	306.838817	1185.403232	253.870832	-172.718342	1122.616559	77.376413	317.546125	969.830714	417.535066	-231.986017	858.767227	76.330313
5351	53.50000	57.921979	931.179435	123.141133	13.078277	1496.800811	212.559385	-1.404993	1617.174506	335.581665	137.792687	932.525545	124.839196	-21.948425	929.833372	121.442837	144.173463	489.080877	139.042015	-71.774549	535.283738	337.318156	107.865926	173.133117	-120.125128	-98.378118	111.362629	374.391726	99.999260	152.018612	-171.851681	-99.567540	55.003004	349.218335	107.280651	30.752631	-9.268081	-94.870365	81.904920	576.528347	198.006848	1463.673820	220.279832	-146.701198	1415.693130	142.052004	303.772733	1185.989211	250.910436	-175.132165	1122.726623	81.073143	315.171006	969.470131	412.684465	-232.277346	858.383958	81.732707
5352	53.51000	55.999421	931.871861	123.869118	11.023742	1497.418606	213.020399	-3.102418	1617.585806	336.182954	135.961005	933.110137	125.427362	-23.961932	930.633620	122.310701	144.047021	490.945670	145.798309	-72.964128	534.075103	333.454620	108.190288	176.004207	-115.999008	-98.205757	111.125309	367.650130	100.357111	155.373089	-168.050884	-99.304393	55.135454	342.221182	107.025667	31.547409	-6.503931	-93.930222	80.418161	568.824768	195.924106	1464.659910	219.201043	-149.075091	1416.141980	144.220911	300.706650	1186.575191	247.950041	-177.545989	1122.836687	84.769873	312.795887	969.109548	407.833863	-232.568675	858.000690	87.135102
5353	53.52000	54.076863	932.564287	124.597102	8.969207	1498.036401	213.481412	-4.799843	1617.997106	336.784243	134.129323	933.694729	126.015528	-25.975440	931.433868	123.178565	143.920579	492.810463	152.554603	-74.153706	532.866469	329.591084	108.514649	178.875298	-111.872889	-98.033396	110.887989	360.908534	100.714961	158.727566	-164.250088	-99.041245	55.267903	335.224030	106.770683	32.342186	-3.739782	-92.990079	78.931402	561.121188	193.841364	1465.646000	218.122255	-151.448983	1416.590831	146.389818	297.640566	1187.161171	244.989645	-179.959813	1122.946751	88.466603	310.420769	968.748965	402.983261	-232.860005	857.617421	92.537497
5354	53.53000	52.154305	933.256713	125.325086	6.914672	1498.654196	213.942425	-6.497268	1618.408406	337.385532	132.297642	934.279321	126.603694	-27.988948	932.234117	124.046429	143.794138	494.675256	159.310897	-75.343285	531.657834	325.727548	108.839010	181.746388	-107.746770	-97.861035	110.650670	354.166938	101.072812	162.082044	-160.449292	-98.778097	55.400353	328.226877	106.515699	33.136964	-0.975632	-92.049935	77.444644	553.417609	191.758622	1466.632090	217.043466	-153.822876	1417.039681	148.558725	294.574483	1187.747150	242.029250	-182.373637	1123.056815	92.163333	308.045650	968.388382	398.132659	-233.151334	857.234152	97.939891
5355	53.54000	50.231747	933.949138	126.053070	4.860138	1499.271991	214.403439	-8.194693	1618.819707	337.986820	130.465960	934.863912	127.191859	-30.002456	933.034365	124.914293	143.667696	496.540050	166.067191	-76.532863	530.449199	321.864012	109.163371	184.617478	-103.620651	-97.688674	110.413350	347.425342	101.430662	165.436521	-156.648496	-98.514949	55.532802	321.229724	106.260715	33.931741	1.788518	-91.109792	75.957885	545.714030	189.675881	1467.618180	215.964677	-156.196768	1417.488532	150.727632	291.508399	1188.333130	239.068854	-184.787461	1123.166879	95.860063	305.670531	968.027799	393.282057	-233.442663	856.850884	103.342286
